<?xml version="1.0" encoding="UTF-8"?>
<svg xmlns="http://www.w3.org/2000/svg" xmlns:xlink="http://www.w3.org/1999/xlink" viewBox="0 0 48 48" width="48px" height="48px">
<g id="surface199487037">
<path style=" stroke:none;fill-rule:nonzero;fill:rgb(100%,27.450982%,33.333334%);fill-opacity:1;" d="M 5 10.886719 L 5 22.644531 C 5 23.523438 5.289062 24.378906 5.824219 25.074219 L 17.398438 40.214844 C 17.777344 40.710938 18.363281 41 18.988281 41 L 28.9375 41 C 29.773438 41 30.242188 40.035156 29.722656 39.382812 L 6.785156 10.265625 C 6.199219 9.519531 5 9.9375 5 10.886719 Z M 5 10.886719 "/>
<path style=" stroke:none;fill-rule:nonzero;fill:rgb(100%,27.450982%,33.333334%);fill-opacity:1;" d="M 27.246094 28.390625 L 41.210938 10.320312 C 41.792969 9.5625 43 9.976562 43 10.929688 L 43 23.394531 C 43 23.789062 42.882812 24.175781 42.664062 24.503906 L 39.59375 29.109375 C 39.222656 29.664062 38.597656 30 37.929688 30 L 28.035156 30 C 27.207031 30 26.738281 29.046875 27.246094 28.390625 Z M 27.246094 28.390625 "/>
</g>
</svg>
